<svg xmlns="http://www.w3.org/2000/svg" viewBox="76.5 81.9 46.9 36.6"><path fill="#ffffff" d="M117.631,83.452c-1.181,0-2.161,0.355-2.912,1.057c-0.76,0.71-1.144,1.531-1.144,2.438v16.056
			c0,2.154-0.382,3.742-1.135,4.721c-0.728,0.946-1.892,1.406-3.556,1.406c-1.703,0-2.863-0.457-3.549-1.396
			c-0.716-0.979-1.078-2.571-1.078-4.731V86.884c0-1.098-0.5-1.996-1.448-2.596c-1.289-0.812-2.57-1.105-4.129-0.587
			c-0.476,0.159-0.924,0.366-1.333,0.615c-0.435,0.265-0.802,0.597-1.093,0.985c-0.322,0.432-0.486,0.901-0.486,1.396v16.307
			c0,2.158-0.363,3.75-1.079,4.73c-0.688,0.939-1.849,1.396-3.548,1.396c-1.705,0-2.877-0.459-3.584-1.401
			c-0.734-0.979-1.107-2.57-1.107-4.726V86.947c0-0.908-0.384-1.728-1.145-2.438c-0.751-0.702-1.751-1.057-2.973-1.057
			c-1.258,0-2.296,0.352-3.085,1.045c-0.811,0.71-1.222,1.535-1.222,2.45v15.806c0,1.988,0.194,3.869,0.575,5.588
			c0.393,1.758,1.077,3.3,2.035,4.586c0.968,1.299,2.282,2.323,3.906,3.05c1.607,0.716,3.617,1.079,5.975,1.079
			c2.457,0,4.515-0.455,6.115-1.354c1.342-0.754,2.473-1.744,3.371-2.951c0.866,1.207,1.971,2.197,3.294,2.95
			c1.58,0.899,3.669,1.354,6.211,1.354c2.357,0,4.359-0.364,5.947-1.081c1.601-0.726,2.902-1.751,3.872-3.048
			c0.96-1.29,1.645-2.833,2.034-4.586c0.381-1.719,0.575-3.6,0.575-5.588V86.947c0-0.911-0.398-1.733-1.184-2.445
			C119.984,83.805,118.933,83.452,117.631,83.452z"/></svg>